<svg version="1.1" xmlns="http://www.w3.org/2000/svg" width="800" height="800">
<path d="M0 0 C264 0 528 0 800 0 C800 264 800 528 800 800 C536 800 272 800 0 800 C0 536 0 272 0 0 Z " fill="none" transform="translate(0,0)"/>
<path d="M0 0 C3.41013744 1.30134872 5.26243602 3.15772974 7.85025501 5.73377514 C8.35680408 6.23267311 8.86335314 6.73157108 9.38525218 7.24558717 C11.07915564 8.91886207 12.75842963 10.60608236 14.43806934 12.29366589 C15.64980208 13.49670397 16.86236795 14.69890341 18.07570362 15.90032482 C21.36797746 19.16580276 24.64730809 22.44399349 27.92367482 25.72542262 C30.65882945 28.46271524 33.39991041 31.19403476 36.14092273 33.92545968 C42.60586636 40.36820823 49.06008767 46.82156271 55.50789356 53.28145885 C62.16330789 59.94896025 68.83687839 66.59788345 75.5195902 73.23801535 C81.25446301 78.93768498 86.9776851 84.6488708 92.69172496 90.36942559 C96.10553996 93.78687068 99.52367968 97.19968989 102.95315456 100.60142612 C106.17674113 103.79991115 109.38555729 107.01250715 112.58351612 110.23660946 C113.76028036 111.4181162 114.94219867 112.59451488 116.12954235 113.76538944 C117.74844706 115.36344573 119.3477928 116.9788303 120.94351673 118.59998608 C121.84406693 119.5002008 122.74461714 120.40041552 123.67245674 121.32790947 C125.96160535 124.51671869 126.10861984 126.14003091 125.57942677 129.98433971 C124.03636646 132.25565624 124.03636646 132.25565624 121.84749317 134.41329479 C121.03309772 135.23046474 120.21870228 136.0476347 119.37962818 136.88956738 C118.04380192 138.18364765 118.04380192 138.18364765 116.68098927 139.50387096 C115.77569477 140.40304745 114.87040028 141.30222393 113.93767262 142.22864819 C111.53226213 144.61167246 109.11445939 146.98058228 106.68996143 149.34408092 C104.7113427 151.27904469 102.74584347 153.22703944 100.78089809 155.1758728 C96.72429753 159.19853017 92.65756638 163.21101543 88.57014942 167.20235729 C87.84623005 167.91040005 87.12231068 168.6184428 86.37645435 169.3479414 C84.57942677 170.98433971 84.57942677 170.98433971 82.57942677 171.98433971 C80.07493739 171.35938946 77.62400296 170.66819105 75.15071583 169.93624401 C63.52801384 166.73180136 51.81670889 164.88170788 39.82942677 163.67183971 C38.73040405 163.56077263 37.63138134 163.44970554 36.49905491 163.33527279 C6.57469191 160.72227877 -16.45330578 167.98323433 -39.22672558 186.9638319 C-60.04578241 204.62124512 -79.09962382 224.25133845 -97.85807323 244.04683971 C-98.66272707 244.89472419 -99.46738091 245.74260867 -100.29641819 246.61618662 C-121.49279813 268.9711002 -142.18287222 291.75896259 -162.42057323 314.98433971 C-146.3586845 315.03755123 -130.31087478 314.91790865 -114.25260448 314.58199596 C-112.1471127 314.53943258 -110.04161845 314.49699052 -107.93612194 314.45466137 C-103.57763032 314.36641805 -99.21918332 314.27627352 -94.86075878 314.18477917 C-89.31285152 314.06853633 -83.76484783 313.95791405 -78.21679688 313.84877396 C-73.89015981 313.76291347 -69.56359615 313.67371716 -65.23704624 313.58358097 C-63.1916092 313.5414249 -61.14614943 313.50035465 -59.100667 313.46046162 C-49.08662719 313.26366982 -39.1165289 313.0161094 -29.13115978 312.19381237 C-25.75307341 311.93275569 -22.43278987 311.88420397 -19.04557323 311.92183971 C-17.96533886 311.93086315 -16.88510448 311.93988659 -15.77213573 311.94918346 C-14.6081123 311.96658581 -14.6081123 311.96658581 -13.42057323 311.98433971 C-13.8321465 316.95006061 -15.99472609 318.95401223 -19.54557323 322.29683971 C-22.78294652 325.40141897 -25.9636787 328.48878615 -28.85807323 331.92183971 C-33.27593065 337.09918351 -38.17000604 341.81370046 -43.01090527 346.59054089 C-44.36072856 347.92516873 -45.70332616 349.26709264 -47.04557323 350.60933971 C-48.49545487 352.05922135 -49.9500301 353.50445323 -51.41276073 354.94137096 C-52.03408886 355.55367565 -52.65541698 356.16598034 -53.29557323 356.79683971 C-54.21983105 357.70369518 -54.21983105 357.70369518 -55.16276073 358.62887096 C-57.03468839 360.58176434 -58.79370286 362.56912597 -60.55338573 364.62105846 C-65.73050423 370.57854636 -71.41851119 376.02708457 -77.03776073 381.56246471 C-80.72344607 385.21454197 -84.36876435 388.8441911 -87.73307323 392.79683971 C-88.548083 393.6842384 -88.548083 393.6842384 -89.37955761 394.58956432 C-91.54817647 397.02991256 -91.54817647 397.02991256 -93.50602245 400.19088268 C-97.29560378 405.44464905 -101.18039786 409.252072 -107.65589428 410.71551037 C-116.43211405 411.72692422 -125.23734512 411.55146344 -134.05405712 411.34054089 C-137.70794173 411.26726055 -141.36177297 411.26886552 -145.01627636 411.26363659 C-152.15267863 411.24265438 -159.285735 411.140225 -166.42057323 410.98433971 C-165.68266772 411.71671447 -164.94476221 412.44908922 -164.18449593 413.20365715 C-146.25021797 431.00487982 -128.33314781 448.82327827 -110.43410683 466.65993309 C-101.77794409 475.2851263 -93.1162277 483.90460247 -84.44132519 492.51095104 C-76.88241114 500.01015856 -69.33401784 507.51976853 -61.79819733 515.04218465 C-57.80573283 519.02681073 -53.80811306 523.00594303 -49.79786015 526.97267246 C-46.02654407 530.70338652 -42.26941293 534.44780627 -38.52287197 538.20339489 C-37.14252169 539.58208901 -35.75698806 540.95561514 -34.36605167 542.32362843 C-32.47299062 544.18699906 -30.59916652 546.06777819 -28.72915173 547.95423412 C-28.16983328 548.49607552 -27.61051483 549.03791692 -27.03424734 549.59617776 C-23.42009218 553.29735719 -23.42009218 553.29735719 -23.42244816 556.66187477 C-24.42375552 558.99174434 -25.30876604 560.38120504 -27.08199596 562.17388439 C-27.92929523 563.04460583 -27.92929523 563.04460583 -28.79371166 563.93291759 C-29.41654034 564.55236248 -30.03936901 565.17180737 -30.68107128 565.81002331 C-31.66169788 566.80839214 -31.66169788 566.80839214 -32.66213512 567.82693005 C-34.825111 570.02279146 -37.00273859 572.20337744 -39.18229198 574.38277721 C-40.69143734 575.90223453 -42.20020608 577.42206599 -43.7086134 578.94225597 C-46.87184339 582.12492172 -50.04297314 585.29946725 -53.21915722 588.469203 C-57.29241736 592.53645793 -61.33995948 596.62829429 -65.38129997 600.72723484 C-68.48934761 603.87220421 -71.61322513 607.00106743 -74.74187183 610.1255331 C-76.24138282 611.62792206 -77.73527687 613.13593864 -79.2234354 614.64957333 C-81.30375887 616.76174642 -83.40500399 618.85062207 -85.51310253 620.93502331 C-86.12581005 621.56661358 -86.73851757 622.19820385 -87.36979198 622.84893322 C-87.94875729 623.41249523 -88.52772259 623.97605724 -89.12423229 624.55669689 C-89.6188581 625.05257998 -90.11348391 625.54846306 -90.62309837 626.0593729 C-93.45712064 627.51773908 -95.39259276 626.76383768 -98.42057323 625.98433971 C-100.85212791 624.17953086 -100.85212791 624.17953086 -103.26622868 621.76788998 C-104.194308 620.85284939 -105.12238733 619.93780879 -106.07859027 618.9950397 C-107.09482198 617.96799791 -108.11081585 616.94072076 -109.1265974 615.91323376 C-110.21554244 614.83004923 -111.30557511 613.7479572 -112.39659989 612.66686749 C-115.39299848 609.69137446 -118.37356272 606.7004457 -121.35177326 603.70676303 C-124.565652 600.48159015 -127.79385991 597.2708159 -131.0202589 594.05817699 C-137.33873838 587.76195432 -143.64359701 581.45225937 -149.94370918 575.13766351 C-155.06263652 570.00745458 -160.1864107 564.88213419 -165.31370449 559.76028728 C-166.04281156 559.03194638 -166.77191862 558.30360548 -167.52311984 557.55319364 C-169.00419045 556.07372163 -170.48527228 554.59426086 -171.96636523 553.11481121 C-185.86025203 539.23518882 -199.73875987 525.34026993 -213.61208011 511.4400945 C-225.5242832 499.50554736 -237.44954172 487.58417733 -249.38444042 475.672328 C-263.23565887 461.8478472 -277.07875553 448.01531691 -290.90892804 434.16977906 C-292.38272037 432.69439394 -293.85652317 431.21901928 -295.33033657 429.7436552 C-296.41812318 428.65471153 -296.41812318 428.65471153 -297.52788528 427.54376899 C-302.64646077 422.42087075 -307.77082706 417.30380905 -312.8974371 412.18895245 C-319.14149078 405.95889946 -325.37660306 399.72006244 -331.60030751 393.46967831 C-334.77781957 390.27899621 -337.95925229 387.09249749 -341.15158939 383.91664219 C-344.07104467 381.01203287 -346.97880008 378.09623113 -349.8774655 375.17087832 C-350.93078311 374.11195307 -351.98838267 373.05726732 -353.05052696 372.0071958 C-354.48847733 370.58434873 -355.90972961 369.14468431 -357.32996464 367.70415401 C-358.52348335 366.50941766 -358.52348335 366.50941766 -359.74111354 365.29054523 C-361.42057323 362.98433971 -361.42057323 362.98433971 -362.02204835 360.57379043 C-361.12306056 356.70349801 -358.64178364 354.5252562 -355.88757992 351.83331394 C-355.28940565 351.22907085 -354.69123137 350.62482776 -354.07493061 350.00227427 C-352.05179094 347.9648092 -350.01118798 345.94577439 -347.97031689 343.92608166 C-346.50779531 342.46066566 -345.04637109 340.99415378 -343.58595681 339.52663767 C-339.55732809 335.48484144 -335.51319482 331.45887222 -331.46644807 327.43522739 C-327.10967675 323.09793401 -322.76729341 318.74627876 -318.42315197 314.39634228 C-310.88975226 306.85690059 -303.3472678 299.32665963 -295.79828167 291.8028326 C-287.87722871 283.90813129 -279.96114028 276.0085079 -272.0517149 268.10215664 C-271.31435599 267.36509559 -271.31435599 267.36509559 -270.56210093 266.61314441 C-268.06566322 264.11767051 -265.5693086 261.6221135 -263.07298246 259.12652798 C-245.38149347 241.44065599 -227.67805798 223.76678625 -209.96793652 206.09957409 C-192.76970565 188.94298626 -175.57813341 171.77976628 -158.39469433 154.60836315 C-157.60080794 153.81503861 -157.60080794 153.81503861 -156.79088343 153.00568731 C-152.53317805 148.75099002 -148.27549609 144.49626929 -144.01785748 140.24150519 C-125.6519901 121.88806957 -107.28084582 103.53991688 -88.90856457 85.192902 C-85.44256155 81.73163909 -81.97673911 78.27019542 -78.51097679 74.8086915 C-68.10477082 64.41543553 -57.69685464 54.02390136 -47.28430286 43.63700198 C-42.97688646 39.34018405 -38.67022088 35.0426213 -34.36566639 30.74293613 C-30.42869253 26.81050169 -26.48941626 22.8803894 -22.54823783 18.95216902 C-21.11932086 17.52716121 -19.69124277 16.10131167 -18.26406881 14.67455821 C-16.33063492 12.74196513 -14.39419221 10.8124387 -12.45693111 8.8836832 C-11.89789654 8.32345085 -11.33886196 7.7632185 -10.76288694 7.18600941 C-3.50474922 -0.02267454 -3.50474922 -0.02267454 0 0 Z " fill="#FEFEFE" transform="translate(399.4205732345581,61.01566028594971)"/>
<path d="M0 0 C2.28168945 0.80290822 3.38355989 1.65973104 5.09578419 3.34992504 C5.66647633 3.90637707 6.23716846 4.46282909 6.8251543 5.0361433 C7.43884373 5.64962124 8.05253315 6.26309917 8.68481922 6.89516735 C9.34049885 7.53916485 9.99617847 8.18316235 10.67172718 8.84667492 C12.83815912 10.97949175 14.99296631 13.12358912 17.14648914 15.26943493 C18.64517221 16.75594192 20.14400955 18.2422934 21.64299488 19.7284956 C24.78307558 22.84609255 27.91662721 25.97009671 31.04663563 29.09780407 C35.06292742 33.10880538 39.10175781 37.09625808 43.14669228 41.07834435 C46.24941756 44.14026159 49.33627468 47.21780136 52.41889477 50.29994678 C53.9016152 51.77727159 55.39009566 53.24883821 56.88432217 54.71452427 C58.97014456 56.76379211 61.03278192 58.83392064 63.09106922 60.91079235 C63.7148798 61.51414913 64.33869038 62.11750591 64.9814043 62.73914623 C65.53799732 63.30969738 66.09459034 63.88024853 66.66804981 64.4680891 C67.40276115 65.1989663 67.40276115 65.1989663 68.15231514 65.94460869 C69.06445789 67.72646618 69.06445789 67.72646618 69.11799717 70.48877144 C67.63997582 75.03096749 64.97495887 77.49312856 61.60423756 80.7879591 C60.92142989 81.47503889 60.23862222 82.16211869 59.53512341 82.87001908 C57.24208723 85.17129677 54.93162621 87.45423858 52.62085438 89.73769665 C50.97433386 91.38280697 49.32891323 93.02901876 47.68451405 94.6762495 C43.21443913 99.14776103 38.72909767 103.60367174 34.24090552 108.05698824 C30.02884932 112.24098497 25.82830198 116.4364775 21.62768269 120.6319517 C13.30784611 128.94084849 4.97690796 137.23852098 -3.36107922 145.52920055 C-11.46003708 153.58225468 -19.55372036 161.64055004 -27.64037609 169.70595837 C-28.13894163 170.20321029 -28.63750717 170.70046221 -29.15118075 171.21278237 C-31.65233595 173.70741232 -34.1533879 176.20214575 -36.65438855 178.69693065 C-57.39878789 199.38950679 -78.16143001 220.06372016 -98.93554211 240.72646618 C-97.46184933 244.13537403 -95.557468 246.3516844 -92.93661022 248.9659071 C-92.10085964 249.80440701 -91.26510906 250.64290691 -90.40403271 251.50681591 C-89.48550014 252.41815792 -88.56696758 253.32949993 -87.6206007 254.26845837 C-86.64451901 255.24397574 -85.66887784 256.21993406 -84.69364452 257.19629955 C-82.04748061 259.84303721 -79.39519623 262.48356373 -76.74177408 265.12302208 C-73.96885552 267.88343691 -71.20160086 270.64951772 -68.43374157 273.41500378 C-63.19270199 278.64982755 -57.94658508 283.87953224 -52.69862711 289.10741925 C-46.72377171 295.05991883 -40.75459532 301.01809941 -34.78589034 306.97676516 C-22.50875124 319.23299996 -10.22449562 331.4820776 2.06445789 343.72646618 C4.84968613 342.44870542 6.95024601 341.10690004 9.15825367 338.98757458 C9.7428838 338.4302615 10.32751392 337.87294842 10.92986012 337.29874706 C11.55910892 336.68901546 12.18835773 336.07928387 12.83667469 335.45107555 C13.84463596 334.48451283 13.84463596 334.48451283 14.87296009 333.49842358 C21.06633365 327.54298992 27.20599912 321.53141498 33.33061981 315.50537395 C37.43943474 311.46276225 41.56300779 307.43847663 45.72876453 303.45449352 C49.76572765 299.59317042 53.75860129 295.69089367 57.72477627 291.75693798 C59.23601818 290.27189377 60.76178448 288.8014698 62.30247021 287.34699535 C72.42601735 277.94100456 72.42601735 277.94100456 76.43805885 265.14967632 C76.53347761 261.63292187 76.38932663 258.23027641 76.06445789 254.72646618 C75.18162632 254.73312801 74.29879475 254.73978985 73.3892107 254.74665356 C65.0755529 254.80672667 56.76196783 254.85242121 48.44814301 254.88190269 C44.17375091 254.8975689 39.89953792 254.91882438 35.62524891 254.95278454 C31.50148536 254.98534427 27.37789426 255.003312 23.25401211 255.01109791 C21.67949998 255.01664754 20.10499744 255.02748449 18.53055859 255.04365635 C16.32770117 255.06538623 14.12555927 255.06843506 11.92261219 255.06704235 C10.04064388 255.0770351 10.04064388 255.0770351 8.12065601 255.08722973 C5.06445789 254.72646618 5.06445789 254.72646618 3.12527943 253.33033276 C2.06445789 251.72646618 2.06445789 251.72646618 2.23315907 249.72402477 C3.60165765 246.43560909 6.03222693 243.97943363 8.37695789 241.35146618 C9.47740269 240.09381499 10.5776579 238.83599789 11.67773914 237.57802868 C12.24186512 236.93768688 12.8059911 236.29734509 13.3872118 235.63759899 C15.97361085 232.69053469 18.51813061 229.70813872 21.06445789 226.72646618 C22.06028228 225.56347507 23.05637717 224.40071552 24.05273914 223.23818493 C24.54725574 222.66116833 25.04177235 222.08415173 25.5512743 221.48964977 C27.08868 219.69824223 28.62897327 217.90935379 30.16992664 216.12099743 C34.76052342 210.78811296 39.32207188 205.44460673 43.75195789 199.97646618 C46.55258184 196.52219571 49.43108457 193.18856723 52.43945789 189.91396618 C55.92577772 186.09647607 59.11089937 182.13733213 62.25195789 178.03896618 C66.84395048 172.06741202 71.82153107 166.58030195 77.01025867 161.1244154 C81.14688207 156.76044255 84.97327446 152.23645957 88.72461414 147.53505993 C92.07051636 143.51886011 95.66035566 139.74767153 99.24365711 135.94399548 C103.50042331 131.39988184 107.4744574 126.70576179 111.35742664 121.83584118 C114.63919264 117.78056969 114.63919264 117.78056969 117.91992664 117.36318493 C121.77069659 117.80805649 122.7682585 118.73375459 125.37695789 121.53896618 C126.15168446 122.3665443 126.92641102 123.19412243 127.72461414 124.04677868 C130.76248167 127.52587238 133.66381539 131.10066304 136.54883289 134.70693493 C139.4337875 138.1697764 142.47409876 141.44774654 145.56445789 144.72646618 C150.13552062 149.58010607 154.46934061 154.51584704 158.55078602 159.79633617 C161.00713525 162.81393981 161.00713525 162.81393981 164.10156727 165.31052685 C182.63162312 181.29920047 182.81154644 212.91316 184.54520762 235.92796689 C184.72354044 238.42296179 184.89402394 240.91842082 185.06445789 243.41396618 C185.12506555 244.23681355 185.1856732 245.05966091 185.24811745 245.90744305 C188.64319692 292.52662342 179.26395476 327.73852714 148.39056873 363.4920454 C131.38397686 382.76217466 113.13815207 400.78048743 94.40153408 418.35476261 C92.93589174 419.7298119 91.47179203 421.10648768 90.0079546 422.48345804 C69.36240889 441.89106787 48.31946307 460.84715091 26.70850086 479.17568493 C25.94407925 479.83086302 25.17965763 480.48604111 24.39207172 481.16107309 C22.26581544 482.97739519 20.12360059 484.7724809 17.97409534 486.56118298 C17.35734436 487.09170436 16.74059337 487.62222575 16.10515296 488.16882354 C13.33941176 490.43049349 11.40841983 491.67407328 7.84559441 492.21676922 C4.8347564 491.68597074 3.77804474 491.18569671 1.65663624 489.04690075 C1.05268528 488.45264294 0.44873432 487.85838512 -0.17351818 487.2461195 C-0.81420238 486.58543468 -1.45488659 485.92474987 -2.11498547 485.2440443 C-3.15281925 484.2099342 -3.15281925 484.2099342 -4.21161938 483.15493298 C-6.49752054 480.86995068 -8.76130827 478.56430797 -11.02538586 476.25771618 C-12.61305668 474.66138704 -14.20198876 473.06631141 -15.79212475 471.47243786 C-19.98030288 467.26701385 -24.14974022 463.04345875 -28.31597424 458.81630993 C-31.70466469 455.38418406 -35.10620406 451.96495913 -38.50859261 448.5464201 C-42.58092762 444.45438776 -46.64784203 440.35699057 -50.71288586 436.25771618 C-51.48239008 435.48178616 -52.2518943 434.70585613 -53.04471684 433.90641308 C-55.2415473 431.68840271 -57.43477164 429.46689399 -59.62670422 427.2440443 C-60.26536419 426.59955334 -60.90402416 425.95506237 -61.56203747 425.29104137 C-64.54614214 422.25753222 -67.43454834 419.18246795 -70.20523548 415.95214653 C-73.70130056 411.94176433 -77.37561241 408.162047 -81.15525341 404.42014599 C-81.84727118 403.73080162 -82.53928895 403.04145726 -83.25227696 402.33122367 C-85.54983383 400.04365201 -87.85097895 397.75972484 -90.15209484 395.47573376 C-91.80853319 393.82777071 -93.46471023 392.17954497 -95.12064648 390.53107738 C-98.67539526 386.99299664 -102.23151258 383.45629914 -105.78856754 379.92053699 C-111.40981346 374.33197291 -117.02508088 368.73742529 -122.63892651 363.14142895 C-123.59694549 362.18652009 -124.55496824 361.23161502 -125.51299471 360.27671367 C-126.9642431 358.83019037 -128.41548809 357.38366365 -129.86671848 355.93712229 C-135.32407945 350.49744696 -140.78214507 345.05847922 -146.24096203 339.62026501 C-146.98865918 338.87538343 -146.98865918 338.87538343 -147.75146133 338.11545374 C-155.84795308 330.04992141 -163.95176519 321.99177812 -172.05779921 313.93583754 C-180.38859231 305.65609107 -188.70984732 297.36684306 -197.02269799 289.06908244 C-201.68735304 284.41381938 -206.35652854 279.76329408 -211.0365839 275.12350941 C-215.43113501 270.76667003 -219.81404775 266.39846277 -224.18815327 262.02110004 C-225.79794253 260.41429225 -227.41205041 258.81179816 -229.03068066 257.21389675 C-231.23369007 255.0378643 -233.42089165 252.84709566 -235.6047163 250.65183544 C-236.57807301 249.70134822 -236.57807301 249.70134822 -237.5710935 248.73165923 C-238.15198706 248.14142713 -238.73288063 247.55119502 -239.33137703 246.94307709 C-239.83792664 246.43896815 -240.34447626 245.93485921 -240.86637586 245.41547424 C-242.3966148 242.99808975 -242.36736938 241.53757846 -241.93554211 238.72646618 C-240.41178048 236.5805614 -240.41178048 236.5805614 -238.22419453 234.39708614 C-236.9824724 233.13950611 -236.9824724 233.13950611 -235.71566498 231.85652041 C-234.79098353 230.94572105 -233.86630207 230.03492168 -232.91359997 229.09652233 C-231.93225446 228.11228137 -230.95200687 227.12694469 -229.97276866 226.14060712 C-227.27422454 223.42891335 -224.56028346 220.73309871 -221.84362864 218.03956556 C-218.91839095 215.13382555 -216.00756831 212.21370894 -213.09496593 209.29531384 C-207.38544647 203.57896722 -201.66275921 197.87597872 -195.93569984 192.17721102 C-189.27203494 185.54534193 -182.6220589 178.8998179 -175.97280358 172.25350669 C-164.11210745 160.39887928 -152.23991696 148.55583161 -140.36083508 136.71963024 C-128.8237531 125.22415844 -117.29333398 113.72206383 -105.77099133 102.21181774 C-105.06121718 101.50279181 -104.35144304 100.79376589 -103.62016059 100.06325433 C-100.76753684 97.21360464 -97.91493146 94.36393655 -95.06235725 91.51423727 C-82.77203769 79.23664287 -70.47620249 66.96457312 -58.17967671 54.69319499 C-56.18550289 52.70300515 -54.19146201 50.71268222 -52.19745398 48.72232628 C-45.21900071 41.75688378 -38.23890972 34.7930949 -31.25413455 27.83399126 C-28.36464851 24.95511153 -25.4759202 22.07548309 -22.58930111 19.19372845 C-19.95019586 16.55915638 -17.30879524 13.92690927 -14.66547631 11.29656509 C-13.24963958 9.88650763 -11.83623828 8.47400608 -10.42290604 7.06143832 C-9.5898758 6.23348262 -8.75684555 5.40552692 -7.89857197 4.55248165 C-7.1763439 3.83258423 -6.45411583 3.1126868 -5.71000206 2.3709743 C-2.7346632 -0.38646686 -2.7346632 -0.38646686 0 0 Z " fill="#FEFEFE" transform="translate(585.9355421066284,246.27353382110596)"/>
</svg>